<svg xmlns="http://www.w3.org/2000/svg" viewBox="0 0 123.68 70.47"><title>Asset 7</title><g data-name="Layer 2"><path d="M77.58 70.27a1.82 1.82 0 0 0 1.76-1.38 3 3 0 0 0 0-.76V65.56c.13-2.7.13-3.94.27-6a28 28 0 0 0 .1-5.08 38.74 38.74 0 0 0 .17-7.39c-.12-9.2-.23-12.62-.27-22.84-.23-4.77-.25-11.81-.27-19.27V1.84a2 2 0 0 0 0-.34 1.79 1.79 0 0 0-.11-.39A1.76 1.76 0 0 0 78 .08a4.65 4.65 0 0 0-.94 0h-6.35C67 .1 63.4.16 60.16.27a98.06 98.06 0 0 0-10.3-.05C49.17.16 48.24.07 47.3 0H45.74a1.74 1.74 0 0 0-.37.05 1.69 1.69 0 0 0-.65.33 1.62 1.62 0 0 0-.59 1.14c0 .25 0 .34-.05.44v.32L44 3l-.1 1.35c-.05 1-.09 2-.12 3.09s.17 3.34-.09 3.45c.32 2.37.09 4.53.17 8.55s-.22 5.38.05 8c-.09 3.44 0 8 .09 14.29-.32 2.71 0 5.51-.3 8.62.23 5.42.29 8.09.33 14.25-.06 1.05-.09 2.12-.1 3.18v.7a1.86 1.86 0 0 0 0 .24 1.83 1.83 0 0 0 1.1 1.43 1.81 1.81 0 0 0 .48.13H47a41 41 0 0 1 5.21.19c2.69-.42 6.38 0 9.66-.42 5.22.07 10.27.24 15.73.22v-2.13H61.73L45.9 68a.45.45 0 0 1 .27.27v.14V66.61l-.07-3.18-.11-7.08c-.07-4.88-.13-9.87-.25-13.75.33-4.28.18-7.29.52-11.52-.17-6.43-.13-13.24-.08-20.1V2v-.1a.43.43 0 0 1-.08.1.41.41 0 0 1-.3.17h5l5.05-.08c8 .33 11.66.43 19.48.23l2.08.09h.13c-.13 0 .13 0 0 0a.67.67 0 0 1-.27-.07A.65.65 0 0 1 77 2a.7.7 0 0 1 0-.22v.84l-.08 4.64-.12 9.43c.34 4.49.22 12.44.72 17.62-.14 2.76.17 7.05.31 10.25 0 2.67-.14 3.45-.2 6.9l.39 7.33a48.39 48.39 0 0 0-.39 5.08l-.11 2.93-.06 1.44v.14a.26.26 0 0 1 0-.12.3.3 0 0 1 .22-.14z" fill="#3d8aeb" fill-rule="evenodd"/><path d="M78.34 6.89a3.24 3.24 0 0 1-.71.35A14.51 14.51 0 0 1 74 7.8a31 31 0 0 0-3.61 0c-5.09.36-10.18.26-15.27.27-2.24 0-4.48 0-6.72-.09a22.64 22.64 0 0 1-2.46-.24 1 1 0 0 1-.91-.7 2.85 2.85 0 0 1 .41-.42 4.28 4.28 0 0 1 2.44-.55l9.26.07h2.62c.88 0 1.74.15 2.61.14 3.84-.06 7.68-.19 11.52-.21a23.39 23.39 0 0 1 3.23.41l1.23.17z" fill="#3d8aeb"/><path d="M52.79 7.09a1.88 1.88 0 0 1-.36-.09c-.26-.22-.61-.44-.55-.66a1.05 1.05 0 0 0 0-.66 7.57 7.57 0 0 1-.27-2.78 8.27 8.27 0 0 1 .09-1.22 1.08 1.08 0 0 1 .24-.45c0-.06.09-.12.7-.17l.42.08c.49.14.56.29.55.44 0 .56 0 1.12-.07 1.68a3.29 3.29 0 0 1 0 .48c0 .16-.15.32-.14.47.06.7.19 1.4.21 2.09 0 .2-.27.39-.41.59l-.2.2z" fill="#3d8aeb"/><path d="M73 17.24a1.77 1.77 0 0 0 1.76-1.71c.13-.86.14-1.13.28-1.72.25-.4.12-.68.1-1.42A2.19 2.19 0 0 0 73.32 10a2.1 2.1 0 0 0-.3 0h-.35a2.59 2.59 0 0 0-.51.1c-2.57.12-3.52.23-6.37.27-2.66.46-7.85.08-11.47.51a7.7 7.7 0 0 0-2.87-.05 6.87 6.87 0 0 0-.71-.19 1.42 1.42 0 0 0-.39 0 1.2 1.2 0 0 0-.68.25 1.65 1.65 0 0 0-1.2 1.19c-.08.41-.07.46-.1.62v.44c-.06.28.17.93-.09 1a2.15 2.15 0 0 1 .17 1v.29a2 2 0 0 0 .12.74 1.86 1.86 0 0 0 1.4 1.17 3 3 0 0 0 .63 0h.33l.54.05a1.9 1.9 0 0 0 1-.09 26.08 26.08 0 0 0 4-.09c.76.32 1.54 0 2.41.3a26.23 26.23 0 0 1 4-.33c1.17.25 2.42-.09 3.2.29.75-.42 1.78 0 2.69-.42 1.46.07 2.87.24 4.39.22v-2.16c-2.77.1-6.06 0-8.94-.15-1.9.29-5.31.28-7.48.54-1.2-.33-2-.18-3.21-.52-.9.09-1.82.12-2.76.12h-.3c-.12 0 0 0 0 0h.07a.34.34 0 0 1 .18.24v-2.89s0-.12 0 0v-.06a.4.4 0 0 1-.07.23.41.41 0 0 1-.33.19c.89 0 1.89 0 2.8-.11a19.12 19.12 0 0 0 5.43.23c1.5.29 3.44.22 5.12.36 1.25-.34 3.47-.22 4.91-.72a10.77 10.77 0 0 0 2.86-.31c.37 0 .61.06.88.09l.44.05h.23a.08.08 0 0 1 .06-.08s.07-.05.1.18l.19 1A4.21 4.21 0 0 0 73 15l-.06.41c0-.07 0 .07 0 0v-.06a.22.22 0 0 1 0-.05.27.27 0 0 1 .16-.22zM73 65.72A1.77 1.77 0 0 0 74.8 64c.13-.86.14-1.13.28-1.72.25-.4.12-.68.1-1.42a2.19 2.19 0 0 0-1.85-2.37 2.07 2.07 0 0 0-.3 0h-.35a2.59 2.59 0 0 0-.51.1c-2.57.12-3.52.23-6.37.27-2.66.46-7.85.08-11.47.51a7.7 7.7 0 0 0-2.87-.05 6.87 6.87 0 0 0-.71-.19 1.42 1.42 0 0 0-.39 0 1.2 1.2 0 0 0-.68.25 1.65 1.65 0 0 0-1.2 1.19c-.08.41-.07.46-.1.62v.44c-.06.28.17.93-.09 1a2.14 2.14 0 0 1 .17 1v.29a2 2 0 0 0 .12.74 1.86 1.86 0 0 0 1.4 1.17 3 3 0 0 0 .63 0h.33l.54.05a1.91 1.91 0 0 0 1-.09 26.08 26.08 0 0 0 4-.09c.76.32 1.54 0 2.41.3a26.23 26.23 0 0 1 4-.33c1.17.25 2.42-.09 3.2.29.75-.42 1.78 0 2.69-.42 1.46.07 2.87.24 4.39.22v-2.17c-2.77.1-6.06 0-8.94-.15-1.9.29-5.31.28-7.48.54-1.2-.33-2-.18-3.21-.52-.9.09-1.82.12-2.76.12h-.3c-.12 0 0 0 0 0h.07a.34.34 0 0 1 .18.24V61s0-.12 0 0v-.06a.4.4 0 0 1-.07.23.41.41 0 0 1-.33.19c.89 0 1.89 0 2.8-.11a19.13 19.13 0 0 0 5.43.23c1.5.29 3.44.22 5.12.36 1.25-.34 3.47-.22 4.91-.72a10.77 10.77 0 0 0 2.86-.31c.37 0 .61.06.88.09l.44.05H73a.08.08 0 0 1 .06-.08s.07-.05.1.19l.19 1a4.21 4.21 0 0 0-.35 1.43l-.06.41c0-.07 0 .07 0 0v-.06a.22.22 0 0 1 0-.05.27.27 0 0 1 .16-.22zM72.28 55.62a1.54 1.54 0 0 0 .9-.29 2 2 0 0 0 1.07-1 .58.58 0 0 0 .18-.31v-.23c0-.23 0-.17-.06-.29.26-.31.39-.47.17-.73a19.42 19.42 0 0 1-.27-2.25 2.6 2.6 0 0 1-.21-.85L74 49a1.79 1.79 0 0 0-.6-1.09 1.76 1.76 0 0 0-.56-.32 1.81 1.81 0 0 0-.62-.1h-.56a4.51 4.51 0 0 0-1 .2 1 1 0 0 0-1-.05 1.52 1.52 0 0 0-.25-.19.19.19 0 0 0-.14 0 .43.43 0 0 0-.24.14 1.33 1.33 0 0 0-1.31.4c-.25.18-.24.81-.48.77.07.53.14.51.12.66a1.59 1.59 0 0 0 0 .48c.1.4-.22.53.05.79a3.31 3.31 0 0 0 .09 1.41c-.32.27 0 .54-.3.85a3.89 3.89 0 0 1 .24.68v.17a2 2 0 0 0 .08.39A1.81 1.81 0 0 0 68 55a1.38 1.38 0 0 0 1.25.62.52.52 0 0 1 .51.19c.27-.42.63 0 1-.42a9.61 9.61 0 0 0 1.55.22v-2.12a9.86 9.86 0 0 1-1.57 0l-.81-.07H69.34a.43.43 0 0 1 .18.29c0 .06 0 .32-.06-.06a7.92 7.92 0 0 0-.25-1.36c.33-.42.18-.72.52-1.14a3.88 3.88 0 0 1-.12-1v-.5-.26a.36.36 0 0 1-.36.34 4.35 4.35 0 0 0 1-.11 2.52 2.52 0 0 0 1.92.23h.1c-.12 0 .08 0 0 0a1 1 0 0 1-.26 0 .61.61 0 0 1-.38-.23.8.8 0 0 1-.12-.22.85.85 0 0 1 0-.12v-.06a4.1 4.1 0 0 1-.07.46c.34.44.22 1.23.72 1.74-.14.27.17.7.31 1 0 .26-.14.34-.2.68a5.71 5.71 0 0 0 .39.66c-.43 0-.44-.17-.31-.38zM73 27.84A1.77 1.77 0 0 0 74.8 26c.13-.79.13-1.16.27-1.76.25-.42.12-.73.1-1.49a7.26 7.26 0 0 0 .27-1.14v-.12a2.2 2.2 0 0 0 0-.34 2.18 2.18 0 0 0-1.5-1.8 2.32 2.32 0 0 0-.76-.17h-1.6l-1.48.08c-1 0-2 .09-3.47.11-2.81.46-8.27.08-12.08.51a8.54 8.54 0 0 0-3-.05 7.53 7.53 0 0 0-.75-.19 1.58 1.58 0 0 0-.41 0 1.23 1.23 0 0 0-.71.26 1.64 1.64 0 0 0-1.19 1.36l-.08.52v.47c-.06.3.17 1-.09 1 .32.7.09 1.33.17 2.51V26a2 2 0 0 0 .51 1.25 2 2 0 0 0 1.2.75 2.18 2.18 0 0 0 1.07-.09 29 29 0 0 0 4.2-.09c.8.32 1.62 0 2.53.3a29.09 29.09 0 0 1 4.19-.33c1.24.25 2.56-.09 3.38.29.79-.42 1.87 0 2.84-.42 1.54.07 3 .24 4.62.22v-2.16c-2.92.1-6.38 0-9.42-.15-2 .29-5.6.28-7.88.54-1.26-.33-2.14-.18-3.39-.52-.47 0-1 .07-1.44.09h-.56a.34.34 0 0 1 .26.2.37.37 0 0 1 0 .08s0 .11 0 0V21.46a.38.38 0 0 1 0 .06.45.45 0 0 1 0 .07.41.41 0 0 1-.38.3c.94 0 2 0 3-.11A21.22 21.22 0 0 0 59 22c1.58.29 3.62.22 5.4.36 1.32-.34 3.66-.22 5.18-.72a11.94 11.94 0 0 0 3-.31 4 4 0 0 1 .47 0v.06s0-.05 0 0v.35l.31 2.26a4.63 4.63 0 0 0-.36 1.53l-.06.43c0 .14 0 0 0 0a.26.26 0 0 1 .16-.23zM63.44 55.62a2.12 2.12 0 0 0 1.76-1.43 2 2 0 0 0 .05-.26.43.43 0 0 0 0-.14l.06-.3a4.09 4.09 0 0 1 .14-.56c.25-.29.12-.5.1-1a1.72 1.72 0 0 0 .17-1.51L65.64 49a2.2 2.2 0 0 0-.64-1.29 2.18 2.18 0 0 0-1.35-.57h-2.49c-1.95.46-5.74.08-8.38.51a4.14 4.14 0 0 0-2.1-.05 4 4 0 0 0-.52-.19.77.77 0 0 0-.28 0 .94.94 0 0 0-.5.19 1.56 1.56 0 0 0-1.11.6 1.69 1.69 0 0 0-.34.71 2.29 2.29 0 0 0 0 .32v.16c-.06.21.17.68-.09.7.32.48.09.92.17 1.74s-.22 1.1.05 1.63v.29a1.79 1.79 0 0 0 .14.72 1.85 1.85 0 0 0 1.2 1.07 1.94 1.94 0 0 0 .69.06h.4l.9-.08c.55.32 1.12 0 1.76.3a14.15 14.15 0 0 1 2.9-.33c.86.25 1.77-.09 2.34.29.55-.42 1.3 0 2-.42 1.06.07 2.09.24 3.21.22v-2.09a60.52 60.52 0 0 1-6.53-.15c-1.39.29-3.88.28-5.46.54a4.84 4.84 0 0 0-1.18-.26H50.01c.09 0 0 0 0 0s-.07 0 0 0a.64.64 0 0 1 .37 0 .42.42 0 0 1 0 .26v-.5-1-2.97a.4.4 0 0 1-.39.38 18.3 18.3 0 0 0 2-.11 10.28 10.28 0 0 0 4 .23 29.13 29.13 0 0 0 3.74.36c.92-.34 2.54-.22 3.59-.72.09 0 .44.05.22 0a.11.11 0 0 1-.05-.13.11.11 0 0 1 0-.06l.07.09.12.52c0 .54-.14.7-.2 1.41l.39 1.49a2.67 2.67 0 0 0-.39 1c-.08 0-.08-.19.07-.29z" fill="#9ec4f5" fill-rule="evenodd"/><path d="M71.88 38.75a2.37 2.37 0 0 1-.66 0 9.05 9.05 0 0 1-2.61-1.26c-.36-.3-.73-.6-1.1-.87l-.58-.41c-.17-.11-.46-.32-.46-.27a.4.4 0 0 0-.21 0s-.07 0 0 0l-.12.11L65 37q-1 .89-2.05 1.74c-1.38 1.14-2.8 2.25-4.2 3.36l-.6.48-.62-.46-.93-.69-1.73-1.31s-.1 0 0 0l-.54.28-1.17.6a14 14 0 0 1-1.79.73c-.23.08-.49.17-1-.26a2.65 2.65 0 0 1 .07-.53 2.76 2.76 0 0 1 1.39-1.41l1.49-.82.37-.21.22-.12.2-.09.2-.06a2 2 0 0 1 1.57.23l2.79 2.11h-1.15l.32-.25c.54-.42 1.06-.85 1.61-1.25s1.16-.73 1.68-1.16l3.44-2.9.43-.36.14-.11a1.8 1.8 0 0 1 .24-.15 1.9 1.9 0 0 1 .5-.18 2 2 0 0 1 1 .05 1.83 1.83 0 0 1 .5.24l.25.18L69.54 36a14.46 14.46 0 0 1 1.77 1.84l.66.71z" fill="#3d8aeb"/><path d="M60.33 35.72c-.13-.08-.3-.14-.37-.2-.31-.32-.74-.28-.84-.45a.51.51 0 0 0-.57-.22 1 1 0 0 0-.74.73.6.6 0 0 0 .42.67H58.67a.83.83 0 0 0 .4-.18c.08-.07.23-.12.36-.22a1.63 1.63 0 0 1 .72-.16 3.84 3.84 0 0 1 .41.15.85.85 0 0 1 .15 1.21 2.68 2.68 0 0 1-3.92.53 2.28 2.28 0 0 1-.72-1A1.79 1.79 0 0 1 56 36v-.34a1.9 1.9 0 0 0 0-.23 2.45 2.45 0 0 1 1.56-2 2.6 2.6 0 0 1 1.31-.15 2.53 2.53 0 0 1 1.26.56 1.65 1.65 0 0 1 .43 1.44 1.88 1.88 0 0 1-.11.51z" fill="#3d8aeb"/><path d="M69.54 45.19a2.86 2.86 0 0 0 1.85-.66 3 3 0 0 0 1.07-1.17 4.39 4.39 0 0 0 .39-1.29c.25-.46.13-.8.11-1.64a4.14 4.14 0 0 0 .2-2.38L73 34.47v-.81a4.35 4.35 0 0 0-.16-1.25 3.33 3.33 0 0 0-2.46-2.26 8.27 8.27 0 0 0-1.55 0c-.47 0-1 0-1.5.06h-3.44c-2.41 0-5 0-7 .17a10.29 10.29 0 0 0-3.33-.09c-.22-.06-.52-.15-.82-.2a1.91 1.91 0 0 0-.45 0 1.22 1.22 0 0 0-.55.16 2.67 2.67 0 0 0-2.4 1.38 2.37 2.37 0 0 0-.3 1.07v.42c0 .23-.05.13-.12.14.31.77.07 1.46.15 2.76s-.24 1.73 0 2.58c0 .56-.07 1.2-.06 2v1.23a3 3 0 0 0 .72 2A2.31 2.31 0 0 0 51.35 45a10.81 10.81 0 0 1 1.69.25 35 35 0 0 1 4.6-.29c1.36.27 2.81-.06 3.7.32.87-.41 2.06 0 3.12-.39 1.69.09 3.31.27 5.08.28v-2.13c-3.2.07-7-.09-10.34-.26-1.1.13-2.64.19-4.22.24l-2.34.08a6.5 6.5 0 0 1-.9 0 1.36 1.36 0 0 1-.59-.24 1.71 1.71 0 0 1-.17-.59 1.66 1.66 0 0 1 0-.25v-.35a10.8 10.8 0 0 1 .29-1.85 62.87 62.87 0 0 1 0-6.49v-.21a1.17 1.17 0 0 0 0-.15v-.12a.88.88 0 0 1 .81-.56c1.08 0 2.2 0 3.27-.08a25.56 25.56 0 0 0 6.29.3c1.73.31 4 .26 5.92.42a9.72 9.72 0 0 1 1.27-.17l.73-.05h.12c.08 0 0 0 0 0h.1a.84.84 0 0 1 .48.28 1.16 1.16 0 0 1 .18.27 1 1 0 0 1 .07.27l.08.32A14.34 14.34 0 0 0 71 37.2c-.05.86-.15 1.11-.22 2.22l.37 2.37a4.11 4.11 0 0 1-.28.61 1.7 1.7 0 0 1-.36.44.93.93 0 0 1-.94.22z" fill="#9ec4f5" fill-rule="evenodd"/><path d="M33.9 63.07a1.82 1.82 0 0 0 1.59-1 1.84 1.84 0 0 0 .17-.46 2 2 0 0 0 0-.28v-2.2c.13-2.2.13-3.2.27-4.85a18.51 18.51 0 0 0 .1-4.13 25.61 25.61 0 0 0 .17-6c-.12-7.47-.23-10.25-.27-18.55-.12-1.94-.18-4.34-.21-7V13.59v-.24a1.87 1.87 0 0 0-.12-.35 1.78 1.78 0 0 0-.77-1 1.76 1.76 0 0 0-.61-.23H31.5c-6.06 0-12.47 0-17.73.24A64.72 64.72 0 0 0 5.4 12c-.56-.05-1.32-.15-2.08-.19H1.76a1.68 1.68 0 0 0-.54.23 1.57 1.57 0 0 0-.64.82 1.6 1.6 0 0 0-.18.57v.06a.92.92 0 0 1 0 .11v.13l-.05.53-.14 1.13c-.05.78-.09 1.61-.12 2.5s.17 2.71-.09 2.8c.32 1.93.09 3.68.17 6.94S0 32 .23 34.13c-.09 2.8 0 6.46.09 11.61-.32 2.2 0 4.48-.3 7 .12 2.2.19 3.84.24 5.56L.31 61a3.53 3.53 0 0 0 0 .54 1.76 1.76 0 0 0 1.09 1.33 1.73 1.73 0 0 0 .49.11h.31L4 63c3.42.25 7.06-.09 9.33.29 2.19-.42 5.18 0 7.84-.42 4.24.07 8.34.24 12.78.22v-2.15c-8.05.1-17.63 0-26-.15-1.39.07-3 .13-4.85.17H2.07a.24.24 0 0 1 .15.06.26.26 0 0 1 .1.21v-.67l-.05-2.94c-.07-4-.13-8-.25-11.17.33-3.48.18-5.92.52-9.36-.17-5.22-.13-10.75-.08-16.33v-7.24a.41.41 0 0 1-.38.43h4.06l4.1-.08c6.53.33 9.47.43 15.82.23 2.18.14 4.68.2 7.25.24h.36a.84.84 0 0 1-.24-.09.79.79 0 0 1-.32-.38.83.83 0 0 1-.06-.25c0-.08 0 0 0 0v2.06L33 19.45c.34 3.65.22 10.11.72 14.31-.14 2.24.17 5.73.31 8.33 0 2.17-.14 2.8-.2 5.6l.39 6a32.11 32.11 0 0 0-.39 4.13l-.11 2.38c0 .37 0 .84-.06 1.12a.29.29 0 0 1 .24-.33z" fill="#3d8aeb" fill-rule="evenodd"/><path d="M34.65 18.63a3.25 3.25 0 0 1-.71.35 14.51 14.51 0 0 1-3.65.55 30.92 30.92 0 0 0-3.61 0c-5.09.36-10.18.26-15.27.27-2.24 0-4.48 0-6.72-.09a22.7 22.7 0 0 1-2.46-.24 1 1 0 0 1-.91-.7 2.84 2.84 0 0 1 .41-.42 4.28 4.28 0 0 1 2.44-.55l9.26.07h2.62c.88 0 1.74.15 2.61.14 3.84-.06 7.68-.19 11.52-.21a23.32 23.32 0 0 1 3.23.41l1.23.17z" fill="#3d8aeb"/><path d="M9.1 18.83a1.87 1.87 0 0 1-.35-.13c-.26-.22-.61-.44-.55-.66a1.05 1.05 0 0 0 0-.66 7.57 7.57 0 0 1-.27-2.78A8.26 8.26 0 0 1 8 13.39a1.08 1.08 0 0 1 .24-.45c0-.06.09-.12.7-.17l.42.07c.49.14.56.29.55.44 0 .56 0 1.12-.07 1.68a3.31 3.31 0 0 1 0 .48c0 .16-.15.32-.14.47.06.7.19 1.4.21 2.09 0 .2-.27.39-.41.59l-.17.22z" fill="#3d8aeb"/><path d="M29.35 29a1.77 1.77 0 0 0 1.76-1.71c.13-.86.14-1.13.28-1.72.25-.4.12-.68.1-1.42a2.19 2.19 0 0 0-1.85-2.37 2.07 2.07 0 0 0-.3 0H29a2.59 2.59 0 0 0-.51.1c-2.57.12-3.52.23-6.37.27-2.66.46-7.85.08-11.47.51a7.7 7.7 0 0 0-2.87-.05 6.92 6.92 0 0 0-.71-.19 1.42 1.42 0 0 0-.39 0 1.2 1.2 0 0 0-.68.18 1.65 1.65 0 0 0-1.2 1.19c-.08.41-.07.46-.1.62v.44c-.06.28.17.93-.09 1a2.14 2.14 0 0 1 .17 1v.29a2 2 0 0 0 .12.74A1.86 1.86 0 0 0 6.24 29a3 3 0 0 0 .63 0h.33l.54.05a1.91 1.91 0 0 0 1-.09 26.08 26.08 0 0 0 4-.09c.76.32 1.54 0 2.41.3a26.23 26.23 0 0 1 4-.33c1.17.25 2.42-.09 3.2.29.75-.42 1.78 0 2.69-.42 1.46.07 2.87.24 4.39.22v-2.08c-2.77.1-6.06 0-8.94-.15-1.9.29-5.31.28-7.48.54-1.2-.33-2-.18-3.21-.52-.9.09-1.82.12-2.76.12h-.3c-.12 0 0 0 0 0h.07a.34.34 0 0 1 .18.24v-2.89s0-.12 0 0v-.06a.4.4 0 0 1-.07.23.41.41 0 0 1-.33.19c.89 0 1.89 0 2.8-.11a19.13 19.13 0 0 0 5.43.23c1.5.29 3.44.22 5.12.36 1.25-.34 3.47-.22 4.91-.72a10.77 10.77 0 0 0 2.92-.31c.37 0 .61.06.88.09l.44.05h.23a.08.08 0 0 1 .06-.08s.07-.05.1.19l.19 1a4.22 4.22 0 0 0-.39 1.42l-.06.41c0-.07 0 .07 0 0v-.06a.22.22 0 0 1 0-.05.27.27 0 0 1 .16-.22zM29.35 39.59a1.77 1.77 0 0 0 1.76-1.82c.13-.79.13-1.16.27-1.76.25-.42.12-.73.1-1.49a7.27 7.27 0 0 0 .27-1.14v-.12a2.22 2.22 0 0 0 0-.34 2.18 2.18 0 0 0-1.5-1.8 2.37 2.37 0 0 0-.37-.11 2.34 2.34 0 0 0-.4-.05h-1.6l-1.48.08c-1 0-2 .09-3.47.11-2.8.46-8.27.08-12.08.51a8.54 8.54 0 0 0-3-.05 7.53 7.53 0 0 0-.75-.19 1.57 1.57 0 0 0-.41 0 1.23 1.23 0 0 0-.71.26 1.64 1.64 0 0 0-1.19 1.36l-.08.52v.47c-.06.3.17 1-.09 1 .32.7.09 1.33.17 2.51v.24a2 2 0 0 0 .51 1.25 1.94 1.94 0 0 0 1.27.65 2.18 2.18 0 0 0 1.07-.09 29 29 0 0 0 4.2-.09c.8.32 1.62 0 2.53.3a29.09 29.09 0 0 1 4.19-.33c1.24.25 2.56-.09 3.38.29.79-.42 1.87 0 2.84-.42 1.54.07 3 .24 4.62.22v-2.1c-2.92.1-6.38 0-9.42-.15-2 .29-5.6.28-7.88.54-1.26-.33-2.14-.18-3.39-.52-.47 0-1 .07-1.44.09h-.61a.34.34 0 0 1 .26.2.38.38 0 0 1 0 .08s0 .11 0 0V33.21a.37.37 0 0 1 0 .06.44.44 0 0 1 0 .07.4.4 0 0 1-.38.3c.94 0 2 0 3-.11a21.21 21.21 0 0 0 5.73.23c1.58.29 3.62.22 5.4.36 1.32-.34 3.66-.22 5.18-.72a11.93 11.93 0 0 0 3-.31 4 4 0 0 1 .47 0v.06s0-.06 0 0v.35l.39 2.16a4.63 4.63 0 0 0-.39 1.49l-.06.43c0 .14 0 0 0 0a.27.27 0 0 1 .16-.23z" fill="#9ec4f5" fill-rule="evenodd"/><path d="M28.19 51.24a2.36 2.36 0 0 1-.66 0 9.05 9.05 0 0 1-2.61-1.26c-.36-.3-.73-.6-1.1-.87l-.58-.41c-.17-.11-.46-.32-.46-.27a.4.4 0 0 0-.21 0s-.07 0 0 0l-.12.11-1 .9q-1 .89-2.05 1.74c-1.38 1.14-2.8 2.25-4.2 3.36l-.6.48-.62-.46L13 54l-1.73-1.31s-.1 0 0 0l-.54.28-1.16.61a14 14 0 0 1-1.79.73c-.23.08-.49.17-1-.26a2.65 2.65 0 0 1 .07-.53 2.76 2.76 0 0 1 1.39-1.41l1.49-.82.37-.2.22-.12.2-.09.2-.06a2 2 0 0 1 1.57.23L15 53.1h-1.15l.32-.25c.54-.42 1.06-.85 1.61-1.25s1.16-.73 1.68-1.16L21 47.56l.43-.36.14-.12a1.78 1.78 0 0 1 .24-.15 1.89 1.89 0 0 1 .5-.18 2 2 0 0 1 1 .05 1.83 1.83 0 0 1 .5.24l.25.18 1.82 1.32a14.46 14.46 0 0 1 1.77 1.84l.66.71z" fill="#3d8aeb"/><path d="M16.64 48.22c-.13-.08-.3-.14-.37-.2-.31-.32-.74-.28-.84-.45a.51.51 0 0 0-.57-.22 1 1 0 0 0-.74.73.6.6 0 0 0 .42.67H15a.84.84 0 0 0 .4-.18c.08-.07.23-.12.36-.22a1.62 1.62 0 0 1 .72-.16 3.9 3.9 0 0 1 .41.15.85.85 0 0 1 .11 1.24 2.68 2.68 0 0 1-3.92.53 2.28 2.28 0 0 1-.72-1 1.79 1.79 0 0 1-.07-.63v-.34a1.94 1.94 0 0 0 0-.23 2.45 2.45 0 0 1 1.56-2 2.6 2.6 0 0 1 1.31-.15 2.53 2.53 0 0 1 1.26.56 1.65 1.65 0 0 1 .43 1.44 1.89 1.89 0 0 1-.11.51z" fill="#3d8aeb"/><path d="M25.86 57.69A2.86 2.86 0 0 0 27.7 57a3 3 0 0 0 1.07-1.17 4.39 4.39 0 0 0 .39-1.29c.25-.46.13-.8.11-1.64a4.14 4.14 0 0 0 .2-2.38L29.35 47v-.81a4.35 4.35 0 0 0-.16-1.25 3.33 3.33 0 0 0-2.46-2.26 8.28 8.28 0 0 0-1.55 0c-.47 0-1 0-1.5.06h-3.44c-2.41 0-5 0-7 .17a10.28 10.28 0 0 0-3.33-.09c-.22-.06-.52-.15-.82-.2a1.89 1.89 0 0 0-.45 0 1.22 1.22 0 0 0-.55.16 2.67 2.67 0 0 0-2.4 1.38 2.36 2.36 0 0 0-.3 1.07v.42c0 .23-.05.13-.12.14.31.77.07 1.46.15 2.76s-.24 1.73 0 2.58c0 .56-.07 1.2-.06 2v1.23a3 3 0 0 0 .72 2 2.31 2.31 0 0 0 1.63 1.22 10.84 10.84 0 0 1 1.69.25 35 35 0 0 1 4.6-.29c1.36.27 2.81-.06 3.7.32.87-.41 2.06 0 3.12-.39 1.69.09 3.31.27 5.08.28v-2.13c-3.2.07-7-.09-10.34-.26-1.1.14-2.64.19-4.22.24L9 55.62a6.49 6.49 0 0 1-.9 0 1.35 1.35 0 0 1-.59-.24 1.71 1.71 0 0 1-.17-.59 1.66 1.66 0 0 1 0-.25v-.35a10.81 10.81 0 0 1 .29-1.85 62.94 62.94 0 0 1 0-6.49v-.21a1.19 1.19 0 0 0 0-.15.5.5 0 0 0 0-.12.88.88 0 0 1 .81-.56c1.08 0 2.2 0 3.27-.08a25.55 25.55 0 0 0 6.29.3c1.73.31 4 .26 5.92.42a9.72 9.72 0 0 1 1.27-.17l.73-.05h.12c.08 0 0 0 0 0h.11a.84.84 0 0 1 .48.28 1.17 1.17 0 0 1 .18.27 1 1 0 0 1 .07.27l.08.32a14.35 14.35 0 0 0 .27 3.31c-.05.86-.15 1.11-.22 2.22l.37 2.37a4.1 4.1 0 0 1-.28.61 1.7 1.7 0 0 1-.36.44.93.93 0 0 1-.94.22z" fill="#9ec4f5" fill-rule="evenodd"/><path d="M121.27 59.28a1.8 1.8 0 0 0 1.8-1.72V55.55c.13-2.05.13-3 .27-4.54a16.2 16.2 0 0 0 .1-3.86 22.4 22.4 0 0 0 .17-5.61c-.12-7-.23-9.58-.27-17.35-.12-1.81-.18-4.05-.21-6.55V14.9a1.78 1.78 0 0 0-.93-1.42 1.78 1.78 0 0 0-.58-.19 2.28 2.28 0 0 0-.4 0h-4.17c-5.67 0-11.66 0-16.58.24a56.62 56.62 0 0 0-7.83-.05c-.52-.05-1.23-.15-1.94-.19a10.49 10.49 0 0 0-1 0H89.28a1.66 1.66 0 0 0-.51.2 1.56 1.56 0 0 0-.64.74 1.92 1.92 0 0 0-.26.9l-.05.5-.09 1.06c-.05.73-.09 1.51-.12 2.34s.17 2.54-.09 2.62c.32 1.8.09 3.44.17 6.5s-.22 4.09.05 6.07c-.09 2.62 0 6 .09 10.85-.32 2.06 0 4.19-.3 6.55.12 2.06.19 3.59.24 5.2v.61a1.82 1.82 0 0 0 .55 1.3 1.79 1.79 0 0 0 .63.39 1.68 1.68 0 0 0 .4.09h4.04c3.2.25 6.6-.09 8.72.29 2-.42 4.84 0 7.33-.42 4 .07 7.8.24 11.95.22v-2.15c-7.53.1-16.49 0-24.34-.15-1.3.07-2.85.13-4.54.17l-2.63.06h-.29c-.12 0 .07 0 0 0a.21.21 0 0 1 .1.16v-1.22c-.07-3.71-.13-7.5-.25-10.45.33-3.26.18-5.54.52-8.75-.17-4.88-.13-10.05-.08-15.27v-6.32-.25a.41.41 0 0 1-.38.33h3.8l3.84-.08a140.88 140.88 0 0 0 14.8.23c2 .14 4.38.2 6.78.24H121.16a.82.82 0 0 1-.67-.65.9.9 0 0 1 0-.12v3.37c.34 3.41.22 9.45.72 13.38-.14 2.1.17 5.36.31 7.79 0 2-.14 2.62-.2 5.24l.39 5.57a28.13 28.13 0 0 0-.39 3.86l-.11 2.23v.55a2 2 0 0 1 0 .37.29.29 0 0 1 .24-.28z" fill="#3d8aeb" fill-rule="evenodd"/><path d="M122 20.14a3.23 3.23 0 0 1-.71.35 14.49 14.49 0 0 1-3.65.55 30.92 30.92 0 0 0-3.61 0c-5.09.36-10.18.26-15.27.27-2.24 0-4.48 0-6.72-.09a22.64 22.64 0 0 1-2.43-.22 1 1 0 0 1-.91-.7 2.86 2.86 0 0 1 .41-.42 4.28 4.28 0 0 1 2.44-.55l9.26.07h2.62c.87 0 1.74.15 2.61.14 3.84-.06 7.68-.19 11.52-.21a23.35 23.35 0 0 1 3.23.42L122 20z" fill="#3d8aeb"/><path d="M96.47 20.35a1.88 1.88 0 0 1-.35-.13c-.26-.22-.61-.44-.55-.66a1.05 1.05 0 0 0 0-.66 7.57 7.57 0 0 1-.27-2.78 8.29 8.29 0 0 1 .09-1.22 1.08 1.08 0 0 1 .24-.45c0-.06.09-.12.7-.17l.42.07c.49.14.56.29.55.44 0 .56 0 1.12-.07 1.68a3.29 3.29 0 0 1 0 .48c0 .16-.15.32-.14.47.06.7.19 1.4.21 2.09 0 .2-.27.39-.41.59l-.17.22z" fill="#3d8aeb"/><path d="M116.72 30.5a1.77 1.77 0 0 0 1.76-1.71c.13-.86.14-1.13.28-1.72.25-.4.12-.68.1-1.42a2.19 2.19 0 0 0-1.86-2.38 2.07 2.07 0 0 0-.3 0h-.35a2.59 2.59 0 0 0-.51.1c-2.57.12-3.52.23-6.37.27-2.66.46-7.85.08-11.47.51a7.7 7.7 0 0 0-2.87-.05 6.86 6.86 0 0 0-.71-.19 1.43 1.43 0 0 0-.39 0 1.2 1.2 0 0 0-.68.25 1.65 1.65 0 0 0-1.2 1.19c-.08.41-.07.46-.1.62v.44c-.06.28.17.93-.09 1a2.15 2.15 0 0 1 .17 1v.29a2 2 0 0 0 .12.74 1.85 1.85 0 0 0 1.4 1.17 3 3 0 0 0 .63 0h.33l.54.05a1.91 1.91 0 0 0 1-.09 26.08 26.08 0 0 0 4-.09c.76.32 1.54 0 2.41.3a26.23 26.23 0 0 1 4-.33c1.17.25 2.42-.09 3.2.29.75-.42 1.78 0 2.69-.42 1.46.07 2.87.24 4.39.22v-2.17c-2.77.1-6.06 0-8.94-.15-1.9.29-5.31.28-7.48.54-1.2-.33-2-.18-3.21-.52-.9.09-1.82.12-2.76.12H94c-.12 0 0 0 0 0h.07a.34.34 0 0 1 .18.24v-2.89s0-.12 0 0v-.06a.4.4 0 0 1-.07.23.41.41 0 0 1-.33.19c.89 0 1.89 0 2.8-.11a19.13 19.13 0 0 0 5.43.23c1.5.29 3.44.22 5.12.36 1.25-.34 3.47-.22 4.91-.72a10.77 10.77 0 0 0 2.86-.31c.37 0 .61.06.88.09l.44.05h.23a.08.08 0 0 1 .06-.08s.07-.05.1.19l.19 1a4.22 4.22 0 0 0-.39 1.42l-.06.41c0-.07 0 .07 0 0v-.06a.22.22 0 0 1 0-.05.27.27 0 0 1 .16-.22zM116 54.48a1.54 1.54 0 0 0 .9-.29 2 2 0 0 0 1.07-1 .59.59 0 0 0 .18-.31v-.23c0-.23 0-.17-.06-.29.26-.31.39-.47.17-.73a19.38 19.38 0 0 1-.27-2.25 2.6 2.6 0 0 1-.21-.85l-.05-.65a1.79 1.79 0 0 0-.6-1.09 1.75 1.75 0 0 0-.56-.32 1.8 1.8 0 0 0-.62-.1h-.56a4.51 4.51 0 0 0-1 .2 1 1 0 0 0-1-.05 1.53 1.53 0 0 0-.25-.19.19.19 0 0 0-.14 0 .43.43 0 0 0-.24.14 1.33 1.33 0 0 0-1.31.4c-.25.18-.24.81-.48.77.07.53.14.51.12.66a1.59 1.59 0 0 0 0 .48c.1.4-.22.53.05.79a3.31 3.31 0 0 0 .09 1.41c-.32.27 0 .54-.3.85a3.88 3.88 0 0 1 .24.68 1.72 1.72 0 0 1 0 .17 2 2 0 0 0 .08.39 1.81 1.81 0 0 0 .47.78 1.38 1.38 0 0 0 1.25.62.52.52 0 0 1 .51.19c.27-.42.63 0 1-.42a9.59 9.59 0 0 0 1.55.22v-2.1a9.89 9.89 0 0 1-1.57 0l-.81-.07H113.06a.43.43 0 0 1 .18.29c0 .06 0 .32-.06-.06a7.92 7.92 0 0 0-.25-1.36c.33-.42.18-.72.52-1.14a3.88 3.88 0 0 1-.12-1v-.5-.26a.36.36 0 0 1-.36.34 4.33 4.33 0 0 0 1-.11 2.52 2.52 0 0 0 1.92.23h.1c-.12 0 .08 0 0 0a1 1 0 0 1-.26 0 .61.61 0 0 1-.38-.23.79.79 0 0 1-.12-.22.86.86 0 0 1 0-.12v-.06a4.1 4.1 0 0 1-.07.46c.34.44.22 1.23.72 1.74-.14.27.17.7.31 1 0 .26-.14.34-.2.68a5.71 5.71 0 0 0 .39.66c-.43 0-.44-.17-.31-.38zM107.13 54.48a2.12 2.12 0 0 0 1.76-1.43 2 2 0 0 0 .05-.26.44.44 0 0 0 0-.14l.06-.3a4.1 4.1 0 0 1 .14-.56c.25-.29.12-.5.1-1a1.72 1.72 0 0 0 .17-1.51l-.1-1.38a2.2 2.2 0 0 0-.68-1.32 2.18 2.18 0 0 0-1.33-.58h-2.45c-1.94.46-5.74.08-8.38.51a4.14 4.14 0 0 0-2.1-.05 4 4 0 0 0-.52-.19.76.76 0 0 0-.28 0 .94.94 0 0 0-.5.19 1.56 1.56 0 0 0-1.11.6 1.69 1.69 0 0 0-.34.72 2.29 2.29 0 0 0 0 .32v.16c-.06.21.17.68-.09.7.32.48.09.92.17 1.74s-.22 1.1.05 1.63v.29a1.8 1.8 0 0 0 .14.72A1.85 1.85 0 0 0 93 54.48a2 2 0 0 0 .69.06h.4l.9-.08c.55.32 1.12 0 1.76.3a14.14 14.14 0 0 1 2.9-.33c.86.25 1.77-.09 2.34.29.55-.42 1.3 0 2-.42 1.06.07 2.09.24 3.21.22v-2.16a60.51 60.51 0 0 1-6.53-.15c-1.39.29-3.88.28-5.46.54a4.84 4.84 0 0 0-1.21-.27H93.58c.09 0 0 0 0 0s-.07 0 0 0a.64.64 0 0 1 .37 0 .42.42 0 0 1 0 .26v-.5-1-2.97a.4.4 0 0 1-.39.38 18.3 18.3 0 0 0 2-.11 10.28 10.28 0 0 0 4 .23 29.13 29.13 0 0 0 3.74.36c.92-.34 2.54-.22 3.59-.72.09 0 .44.05.22 0a.11.11 0 0 1 0-.19l.07.09.12.52c0 .54-.14.7-.2 1.41l.39 1.49a2.68 2.68 0 0 0-.39 1c-.08 0-.08-.19.07-.29z" fill="#9ec4f5" fill-rule="evenodd"/><path d="M102.6 42.55a1.49 1.49 0 0 1-.43.08c-.49-.12-1.05-.16-1.34-.51a4.08 4.08 0 0 0-1-.88 29.45 29.45 0 0 1-4.18-3.62c-.59-.56-1.15-1.14-1.69-1.75a3.25 3.25 0 0 1-.48-.79c-.05-.11-.11-.23.24-.73a3.45 3.45 0 0 1 .4-.2.89.89 0 0 1 1 .21l2.37 2.37c.22.22.46.43.67.67a7.14 7.14 0 0 0 .58.75c1 .92 2.14 1.78 3.16 2.73a3.58 3.58 0 0 1 .56 1.11l.2.43z" fill="#3d8aeb"/><path d="M102.12 34a1.5 1.5 0 0 1 .08.43c-.12.5-.16 1.05-.51 1.34a4.08 4.08 0 0 0-.88 1 29.46 29.46 0 0 1-3.62 4.18c-.56.59-1.14 1.15-1.74 1.69a3.25 3.25 0 0 1-.79.48c-.11.05-.23.11-.73-.24a3.41 3.41 0 0 1-.2-.4.89.89 0 0 1 .21-1l2.37-2.37c.22-.22.43-.46.67-.67a7.13 7.13 0 0 0 .75-.58c.92-1 1.78-2.14 2.73-3.16a3.58 3.58 0 0 1 1.11-.56l.43-.2z" fill="#3d8aeb"/><path d="M101.82 44a1.84 1.84 0 0 0 1.54-1.21c0-.09.05-.26.06-.27a.27.27 0 0 1 0-.07v-.06a3.84 3.84 0 0 1 .11-.48c.19-.25.09-.43.07-.88a1.63 1.63 0 0 0 .13-1.28c-.09-1.6-.17-2.19-.21-4a6.84 6.84 0 0 1-.1-.69v-.19a1.67 1.67 0 0 0-.07-.41 1.59 1.59 0 0 0-.46-.72 1.56 1.56 0 0 0-.81-.38 3.87 3.87 0 0 0-.58 0h-1a30.26 30.26 0 0 0-3.79.18 4 4 0 0 0-1.79 0 3.68 3.68 0 0 0-.44-.14.8.8 0 0 0-.62.12 1.31 1.31 0 0 0-.86.36 1.49 1.49 0 0 0-.43.74V35.19c0 .13 0 .23-.09.24.24.41.07.79.13 1.49s-.17.93 0 1.39a13.38 13.38 0 0 0 .07 2.48c-.24.47 0 1-.23 1.5a3.18 3.18 0 0 0 .13.59 1.69 1.69 0 0 0 .35.56A1.65 1.65 0 0 0 94 44a1.46 1.46 0 0 0 .25 0h1.15c.73.19 1.51-.07 2 .22.47-.32 1.11 0 1.68-.32.91.05 1.79.18 2.73.17v-1.71c-1.72.08-3.77 0-5.57-.11-.3.06-.65.1-1 .13H94.25a.06.06 0 0 1-.06 0v-.36c0-.41-.07-.79-.11-1.13.25-.74.14-1.27.4-2a24.1 24.1 0 0 1-.06-3.49v-.5s0-.08 0 0v-.06a.12.12 0 0 1-.11.09c.56 0 1.18 0 1.75-.08a9.83 9.83 0 0 0 3.39.18 9.06 9.06 0 0 0 1.55.18h.83-.13a.53.53 0 0 1-.21-.14c0-.11 0-.44.06 0l.09.81a5.79 5.79 0 0 0 .32 1.58 5.57 5.57 0 0 0 .23 1.78c0 .46-.11.6-.15 1.2l.3 1.27a1.5 1.5 0 0 0-.19.4c0 .12-.08.4-.12.32s-.15 0-.12-.09z" fill="#9ec4f5" fill-rule="evenodd"/><path d="M107.18 34.44a1.23 1.23 0 0 1 0-.67.53.53 0 0 1 .24-.22c.36-.23.7-.47 1.07-.29a1.78 1.78 0 0 0 .83.1 6.25 6.25 0 0 0 .86-.06c.12 0 .24-.15.36-.13.48.09 1 .25 1.44.33a2.31 2.31 0 0 0 .67-.08 4 4 0 0 1 .56-.07h1.85c.31 0 .61.11.92.13a1.42 1.42 0 0 0 .45-.14.88.88 0 0 1 .94.34c.09.09.18.05.27.1s.08.11.11.33-.07.19-.3.38a.73.73 0 0 1-.67.21c-.07 0-.15.06-.22.06-.41 0-.83 0-1.24.05a7.53 7.53 0 0 1-.9.16c-.37 0-.73-.16-1.1-.19-.76-.07-1.52-.11-2.27-.15h-.32c-.67 0-1.34.11-2 .13a6.62 6.62 0 0 1-.7-.12c-.12 0-.25-.1-.37-.05s-.32.19-.48-.15zM107.18 39a1.23 1.23 0 0 1 0-.67.53.53 0 0 1 .24-.22c.36-.23.7-.47 1.07-.29a1.78 1.78 0 0 0 .83.1 6.25 6.25 0 0 0 .86-.06c.12 0 .24-.15.36-.13.48.09 1 .25 1.44.33a2.31 2.31 0 0 0 .67-.08 4 4 0 0 1 .56-.07h1.85c.31 0 .61.11.92.13a1.42 1.42 0 0 0 .45-.14.88.88 0 0 1 .94.34c.09.09.18.05.27.1s.08.11.11.33-.07.19-.3.38a.73.73 0 0 1-.67.21c-.07 0-.15.06-.22.06-.41 0-.83 0-1.24.05a7.53 7.53 0 0 1-.9.16c-.37 0-.73-.16-1.1-.19-.76-.07-1.52-.11-2.27-.15h-.32c-.67 0-1.34.11-2 .13a6.62 6.62 0 0 1-.7-.12c-.12 0-.25-.1-.37-.05s-.32.17-.48-.15zM107.15 43.53a2.82 2.82 0 0 1 0-.67.49.49 0 0 1 .1-.22c.16-.23.3-.47.46-.29s.24.09.36.1a1.19 1.19 0 0 0 .37-.06c.05 0 .1-.15.15-.13.21.09.41.25.62.33s.19-.05.29-.08a.82.82 0 0 1 .24-.07 7.33 7.33 0 0 1 .79 0c.13 0 .26.11.39.13s.13-.09.19-.14.27 0 .4.34c0 .09.08.05.12.1a1 1 0 0 1 0 .33 3.41 3.41 0 0 1-.13.38c-.14.27-.21.23-.29.21s-.06.06-.1.06a5.06 5.06 0 0 0-.53.05c-.13 0-.26.16-.38.16s-.31-.16-.47-.19c-.32-.07-.65-.11-1-.15h-.14c-.29 0-.57.11-.86.13-.1 0-.2-.11-.3-.12s-.11-.1-.16-.05-.05.19-.12-.15z" fill="#9ec4f5"/></g></svg>