<?xml version="1.0" encoding="utf-8"?>
<!-- Generator: Adobe Illustrator 16.0.0, SVG Export Plug-In . SVG Version: 6.00 Build 0)  -->
<!DOCTYPE svg PUBLIC "-//W3C//DTD SVG 1.1//EN" "http://www.w3.org/Graphics/SVG/1.1/DTD/svg11.dtd">
<svg version="1.1" xmlns="http://www.w3.org/2000/svg" xmlns:xlink="http://www.w3.org/1999/xlink" x="0px" y="0px" width="220.5px"
	 height="92.5px" viewBox="141.5 154 220.5 92.5" enable-background="new 141.5 154 220.5 92.5" xml:space="preserve">
<g id="Layer_1">
	<g id="smile-sad">
		<g>
			<path fill="#3D8AEB" d="M360.848,200.014c0.007-2.355-0.257-4.443-0.424-6.623c-0.426-0.785-0.585-1.832-0.853-2.776
				c-0.458-0.751-0.758-1.658-1.065-2.563c-0.435-0.416-0.696-1.008-1.061-1.495c-0.258-0.666-0.92-0.929-1.066-1.71
				c-1.293-1.123-2.451-2.379-3.828-3.418c-3.335-2.188-6.637-3.954-10.853-5.126c-4.282-1.188-9.838-1.173-15.315-1.067
				c-0.048,0.166-0.181,0.248-0.427,0.215c-1.01-0.16-1.463,0.238-2.342,0.211c-3.772,1.054-7.411,2.241-10.638,3.845
				c-1.001,0.991-2.204,1.773-3.19,2.776c-0.271,0.727-1.181,0.811-1.276,1.711c-0.56,0.507-1.283,0.849-1.49,1.708
				c-1.108,0.88-1.916,2.064-2.553,3.419c-0.469,0.525-0.896,1.092-1.063,1.922c-0.41,0.657-1.177,0.956-1.275,1.924
				c-0.72,2.554-0.899,5.65-1.065,8.756c-0.665,2.605-0.354,6.196-0.425,9.4c0.463-0.038,0.097,0.757,0.213,1.066
				c1.797,6.954,5.588,11.907,10,16.236c0.666-0.102,0.562,0.574,1.062,0.641c-0.033,0.604,1.313-0.179,1.277,0.427
				c0.641,0.497,1.322,0.95,1.914,1.496c1.501,0.844,2.963,1.727,4.683,2.349c4.159,1.875,9.779,2.285,15.955,2.137
				c0.097-0.619,1.609,0.189,1.703-0.428c0.946,0.167,1.277-0.284,2.126-0.212c1.067-0.431,2.286-0.701,3.403-1.07
				c0.996-0.497,1.988-0.998,2.983-1.493c1.071-0.488,1.848-1.279,2.979-1.709c2.425-2.267,5.003-4.375,6.595-7.477
				c1.905-2.859,3.337-6.19,4.044-10.253c0.46-0.678,0.319-1.958,0.637-2.779c0.003-0.566-0.079-1.217,0.214-1.493
				c0.129-0.511-0.268-1.551,0.211-1.708C360.488,204.353,360.994,202.512,360.848,200.014z M356.379,210.907
				c-0.353,1.306-0.904,3.309-1.489,4.699c-0.063,0.148-0.372,0.516-0.425,0.642c-0.128,0.313-0.069,0.535-0.213,0.854
				c-0.939,2.095-2.174,3.819-3.191,5.554c-1.53,1.74-3.21,3.328-4.893,4.915c-1.357,0.488-2.102,1.592-3.618,1.921
				c-0.981,0.863-2.678,1.016-3.828,1.709c-1.791,0.197-3.437,0.538-5.319,0.64c-3.705,0.02-7.065-0.313-9.998-1.067
				c-2.576-0.619-4.446-1.943-7.021-2.563c-0.932-0.913-2.152-1.542-3.192-2.348c-0.855-0.992-2.034-1.662-2.977-2.564
				c-0.076-0.71-0.639-0.925-1.063-1.281c-0.794-1.77-2.137-2.983-2.556-5.126c-1.084-1.475-1.582-3.536-2.128-5.555
				c-0.278-1.44,0.049-2.989,0-4.7c-0.046-1.563-0.374-3.274-0.212-4.913c1.207-6.263,3.664-11.271,7.445-14.951
				c4.693-3.549,9.563-6.921,17.871-6.837H330c0.208-0.564,1.691-0.053,2.552,0c2.206,0.14,4.714,0.039,6.807,0.429
				c0.063,0.011,0.234,0.188,0.429,0.213c0.489,0.059,0.521,0.065,1.063,0.213c0.509,0.14,1.589,0.384,2.342,0.641
				c0.076,0.027,0,0.202,0.21,0.214c0.438,0.025,0.676,0.242,1.063,0.428c0.079,0.036,0.376-0.063,0.429,0
				c0.164,0.2,1.218,0.54,1.703,0.854c4.411,2.051,7.826,5.1,9.997,9.4c0.083,0.771,0.284,1.424,0.641,1.921
				C357.836,200.167,357.696,206.065,356.379,210.907z M338.935,199.159c0.499,0.067,0.476,0.661,0.851,0.854
				c0.069,0.499,0.927,0.207,1.063,0.641c0.92-0.147,1.553-0.576,2.342-0.855c0.75-0.796,1.216-1.769,1.489-2.776
				c0.475-1.745,0.28-4.649-0.427-6.195c-0.695-0.441-1.251-1.019-2.552-0.854c-0.779,0.501-1.407,1.149-2.129,1.709
				c-0.158,1.119-0.71,1.849-0.849,2.989v3.847C338.969,198.555,338.953,198.856,338.935,199.159z M322.339,200.654
				c1.533,0.115,2.56-0.273,3.403-0.855c1.089-2.34,1.404-6.459,0-8.757c-0.771-0.366-1.738-0.533-2.979-0.427
				c-0.947,0.471-1.593,1.248-2.127,2.136c-0.332,2.361-0.609,6.234,0.851,7.476C321.883,200.256,322.199,200.367,322.339,200.654z
				 M351.484,204.073c-4.189,5.475-7.287,12.049-13.615,15.379c-0.484,0.153-1.087,0.19-1.489,0.427h-4.043
				c-6.599-1.205-10.64-4.979-14.253-9.185c-1.057-1.076-0.813-3.457-2.768-3.63c-1.997,0.813-1.063,3.913,0,5.125
				c0.732,1.898,2.14,3.124,3.192,4.7c4.314,3.784,9.019,7.18,17.231,7.049c4.902-0.492,7.472-3.323,10.001-6.195
				c1.196-1.506,2.423-2.978,3.192-4.912c0.667-0.681,0.82-1.883,1.487-2.563c-0.021-0.66,0.262-1.018,0.428-1.495
				c0.319-0.389,0.226-1.196,0.636-1.493c-0.061-1.132,0.371-1.766,0.429-2.779C351.868,204.26,351.677,204.167,351.484,204.073z"/>
		</g>
	</g>
</g>
<g id="Layer_1_copy_4">
	<g id="smile-sad_4_">
		<g>
			<path fill="#3D8AEB" d="M202.848,201.014c0.007-2.355-0.257-4.443-0.424-6.623c-0.426-0.785-0.585-1.832-0.853-2.776
				c-0.458-0.751-0.758-1.658-1.065-2.563c-0.435-0.416-0.696-1.008-1.061-1.495c-0.258-0.666-0.92-0.929-1.066-1.71
				c-1.293-1.123-2.451-2.379-3.828-3.418c-3.335-2.188-6.637-3.954-10.853-5.126c-4.282-1.188-9.838-1.173-15.315-1.067
				c-0.048,0.166-0.181,0.248-0.427,0.215c-1.01-0.16-1.463,0.238-2.342,0.211c-3.772,1.054-7.411,2.241-10.638,3.845
				c-1.001,0.991-2.204,1.773-3.19,2.776c-0.271,0.727-1.181,0.811-1.276,1.711c-0.56,0.507-1.283,0.849-1.49,1.708
				c-1.108,0.88-1.916,2.064-2.553,3.419c-0.469,0.525-0.896,1.092-1.063,1.922c-0.41,0.657-1.177,0.956-1.275,1.924
				c-0.72,2.554-0.899,5.65-1.065,8.756c-0.665,2.605-0.354,6.196-0.425,9.4c0.463-0.038,0.097,0.757,0.213,1.066
				c1.797,6.954,5.588,11.907,10,16.236c0.666-0.102,0.562,0.574,1.062,0.641c-0.033,0.604,1.313-0.179,1.277,0.427
				c0.641,0.497,1.322,0.95,1.914,1.496c1.501,0.844,2.963,1.727,4.683,2.349c4.159,1.875,9.779,2.285,15.955,2.137
				c0.097-0.619,1.609,0.189,1.703-0.428c0.946,0.167,1.277-0.284,2.126-0.212c1.067-0.431,2.286-0.701,3.403-1.07
				c0.996-0.497,1.988-0.998,2.983-1.493c1.071-0.488,1.848-1.279,2.979-1.709c2.425-2.267,5.003-4.375,6.595-7.477
				c1.905-2.859,3.337-6.19,4.044-10.253c0.46-0.678,0.319-1.958,0.637-2.779c0.003-0.566-0.079-1.217,0.214-1.493
				c0.129-0.511-0.268-1.551,0.211-1.708C202.488,205.353,202.994,203.512,202.848,201.014z M198.379,211.907
				c-0.353,1.306-0.904,3.309-1.489,4.699c-0.063,0.148-0.372,0.516-0.425,0.642c-0.128,0.313-0.069,0.535-0.213,0.854
				c-0.939,2.095-2.174,3.819-3.191,5.554c-1.53,1.74-3.21,3.328-4.893,4.915c-1.357,0.488-2.102,1.592-3.618,1.921
				c-0.981,0.863-2.678,1.016-3.828,1.709c-1.791,0.197-3.437,0.538-5.319,0.64c-3.705,0.02-7.065-0.313-9.998-1.067
				c-2.576-0.619-4.446-1.943-7.021-2.563c-0.932-0.913-2.152-1.542-3.192-2.348c-0.855-0.992-2.034-1.662-2.977-2.564
				c-0.076-0.71-0.639-0.925-1.063-1.281c-0.794-1.77-2.137-2.983-2.556-5.126c-1.084-1.475-1.582-3.536-2.128-5.555
				c-0.278-1.44,0.049-2.989,0-4.7c-0.046-1.563-0.374-3.274-0.212-4.913c1.207-6.263,3.664-11.271,7.445-14.951
				c4.693-3.549,9.563-6.921,17.871-6.837H172c0.208-0.564,1.691-0.053,2.552,0c2.206,0.14,4.714,0.039,6.807,0.429
				c0.063,0.011,0.234,0.188,0.429,0.213c0.489,0.059,0.521,0.065,1.063,0.213c0.509,0.14,1.589,0.384,2.342,0.641
				c0.076,0.027,0,0.202,0.21,0.214c0.438,0.025,0.676,0.242,1.063,0.428c0.079,0.036,0.376-0.063,0.429,0
				c0.164,0.2,1.218,0.54,1.703,0.854c4.411,2.051,7.826,5.1,9.997,9.4c0.083,0.771,0.284,1.424,0.641,1.921
				C199.836,201.167,199.696,207.065,198.379,211.907z M180.935,200.159c0.499,0.067,0.476,0.661,0.851,0.854
				c0.069,0.499,0.927,0.207,1.063,0.641c0.92-0.147,1.553-0.576,2.342-0.855c0.75-0.796,1.216-1.769,1.489-2.776
				c0.475-1.745,0.28-4.649-0.427-6.195c-0.695-0.441-1.251-1.019-2.552-0.854c-0.779,0.501-1.407,1.149-2.129,1.709
				c-0.158,1.119-0.71,1.849-0.849,2.989v3.847C180.969,199.555,180.953,199.856,180.935,200.159z M164.339,201.654
				c1.533,0.115,2.56-0.273,3.403-0.855c1.089-2.34,1.404-6.459,0-8.757c-0.771-0.366-1.738-0.533-2.979-0.427
				c-0.947,0.471-1.593,1.248-2.127,2.136c-0.332,2.361-0.609,6.234,0.851,7.476C163.883,201.256,164.199,201.367,164.339,201.654z
				 M193.484,205.073c-4.189,5.475-7.287,12.049-13.615,15.379c-0.484,0.153-1.087,0.19-1.489,0.427h-4.043
				c-6.599-1.205-10.64-4.979-14.253-9.185c-1.057-1.076-0.813-3.457-2.768-3.63c-1.997,0.813-1.063,3.913,0,5.125
				c0.732,1.898,2.14,3.124,3.192,4.7c4.314,3.784,9.019,7.18,17.231,7.049c4.902-0.492,7.472-3.323,10.001-6.195
				c1.196-1.506,2.423-2.978,3.192-4.912c0.667-0.681,0.82-1.883,1.487-2.563c-0.021-0.66,0.262-1.018,0.428-1.495
				c0.319-0.389,0.226-1.196,0.636-1.493c-0.061-1.132,0.371-1.766,0.429-2.779C193.868,205.26,193.677,205.167,193.484,205.073z"/>
		</g>
	</g>
</g>
<g id="Layer_1_copy_3" display="none">
	<g id="smile-sad_3_" display="inline">
		<g>
			<path fill="#3D8AEB" d="M202.594,204.026c0.008-2.736-0.299-5.161-0.493-7.692c-0.494-0.913-0.68-2.129-0.99-3.226
				c-0.531-0.873-0.881-1.927-1.237-2.979c-0.506-0.482-0.81-1.171-1.232-1.737c-0.3-0.773-1.069-1.078-1.239-1.985
				c-1.502-1.305-2.848-2.765-4.447-3.971c-3.875-2.541-7.712-4.594-12.608-5.955c-4.976-1.38-11.431-1.363-17.795-1.239
				c-0.056,0.192-0.209,0.288-0.495,0.248c-1.174-0.185-1.7,0.278-2.722,0.246c-4.382,1.225-8.609,2.604-12.358,4.467
				c-1.163,1.15-2.562,2.06-3.707,3.226c-0.314,0.844-1.371,0.941-1.482,1.986c-0.65,0.589-1.491,0.986-1.731,1.984
				c-1.288,1.022-2.227,2.398-2.966,3.972c-0.545,0.61-1.041,1.269-1.235,2.232c-0.476,0.764-1.366,1.111-1.482,2.234
				c-0.836,2.967-1.044,6.564-1.237,10.173c-0.772,3.026-0.41,7.197-0.493,10.919c0.537-0.044,0.112,0.879,0.247,1.239
				c2.089,8.078,6.492,13.832,11.618,18.861c0.774-0.117,0.653,0.667,1.233,0.744c-0.038,0.701,1.525-0.208,1.484,0.496
				c0.745,0.576,1.537,1.103,2.224,1.737c1.744,0.98,3.443,2.005,5.44,2.729c4.833,2.178,11.362,2.654,18.538,2.481
				c0.112-0.718,1.869,0.221,1.978-0.496c1.1,0.194,1.484-0.33,2.471-0.247c1.239-0.499,2.655-0.813,3.954-1.242
				c1.157-0.578,2.311-1.159,3.466-1.735c1.245-0.567,2.146-1.485,3.461-1.985c2.817-2.632,5.813-5.082,7.662-8.685
				c2.213-3.322,3.877-7.191,4.698-11.911c0.535-0.786,0.371-2.273,0.739-3.228c0.005-0.658-0.091-1.415,0.249-1.735
				c0.149-0.593-0.312-1.801,0.244-1.984C202.176,209.067,202.765,206.929,202.594,204.026z M197.401,216.682
				c-0.41,1.517-1.05,3.844-1.73,5.459c-0.071,0.173-0.433,0.599-0.493,0.745c-0.148,0.364-0.081,0.622-0.247,0.992
				c-1.092,2.433-2.526,4.437-3.707,6.451c-1.779,2.021-3.73,3.865-5.686,5.71c-1.577,0.566-2.441,1.849-4.203,2.231
				c-1.141,1.002-3.111,1.179-4.448,1.984c-2.08,0.229-3.992,0.625-6.18,0.743c-4.306,0.023-8.209-0.362-11.617-1.24
				c-2.992-0.719-5.166-2.257-8.157-2.978c-1.083-1.061-2.501-1.791-3.709-2.728c-0.994-1.152-2.363-1.93-3.458-2.979
				c-0.089-0.824-0.743-1.074-1.235-1.488c-0.922-2.056-2.481-3.466-2.969-5.955c-1.259-1.713-1.838-4.107-2.472-6.452
				c-0.324-1.674,0.057-3.474,0-5.46c-0.054-1.816-0.436-3.804-0.246-5.707c1.401-7.275,4.256-13.094,8.649-17.369
				c5.454-4.123,11.109-8.039,20.764-7.941h0.497c0.242-0.656,1.965-0.062,2.964,0c2.563,0.161,5.477,0.044,7.908,0.497
				c0.074,0.013,0.272,0.219,0.499,0.248c0.568,0.068,0.604,0.075,1.233,0.247c0.592,0.162,1.847,0.446,2.722,0.744
				c0.088,0.031,0,0.235,0.244,0.249c0.51,0.029,0.784,0.281,1.235,0.496c0.092,0.042,0.437-0.073,0.497,0
				c0.192,0.233,1.416,0.628,1.979,0.992c5.125,2.383,9.094,5.924,11.615,10.919c0.097,0.896,0.33,1.654,0.744,2.231
				C199.095,204.205,198.932,211.058,197.401,216.682z M177.134,203.034c0.58,0.078,0.554,0.769,0.989,0.992
				c0.08,0.58,1.076,0.241,1.233,0.744c1.069-0.17,1.805-0.669,2.722-0.992c0.871-0.926,1.411-2.056,1.729-3.227
				c0.551-2.026,0.326-5.401-0.495-7.196c-0.809-0.513-1.453-1.184-2.965-0.991c-0.905,0.581-1.635,1.335-2.474,1.984
				c-0.184,1.301-0.824,2.148-0.986,3.474v4.468C177.174,202.331,177.155,202.683,177.134,203.034z M157.853,204.771
				c1.781,0.134,2.975-0.317,3.954-0.992c1.266-2.72,1.632-7.504,0-10.174c-0.896-0.426-2.02-0.619-3.461-0.495
				c-1.1,0.547-1.85,1.449-2.471,2.481c-0.387,2.742-0.708,7.241,0.988,8.684C157.323,204.309,157.69,204.438,157.853,204.771z
				 M191.716,208.742c-4.869,6.36-8.467,13.997-15.819,17.865c-0.563,0.179-1.263,0.222-1.73,0.497h-4.697
				c-7.667-1.401-12.361-5.784-16.56-10.67c-1.229-1.25-0.943-4.016-3.216-4.218c-2.32,0.944-1.233,4.547,0,5.954
				c0.852,2.206,2.486,3.629,3.71,5.46c5.013,4.396,10.477,8.341,20.021,8.188c5.695-0.571,8.68-3.861,11.619-7.196
				c1.389-1.75,2.814-3.459,3.708-5.706c0.775-0.792,0.953-2.188,1.729-2.978c-0.023-0.769,0.304-1.184,0.496-1.737
				c0.371-0.451,0.263-1.39,0.74-1.735c-0.071-1.314,0.431-2.051,0.497-3.228C192.161,208.96,191.938,208.852,191.716,208.742z"/>
		</g>
	</g>
</g>
<g id="Layer_1_copy" display="none">
	<g id="smile-sad_1_" display="inline">
		<g>
			<path fill="#3D8AEB" d="M366.853,212.232c0.01-3.515-0.385-6.629-0.636-9.881c-0.638-1.173-0.877-2.735-1.276-4.144
				c-0.686-1.121-1.137-2.476-1.596-3.826c-0.652-0.62-1.045-1.504-1.59-2.231c-0.387-0.994-1.379-1.385-1.598-2.551
				c-1.938-1.676-3.672-3.552-5.735-5.101c-4.997-3.265-9.944-5.901-16.259-7.649c-6.416-1.773-14.74-1.752-22.948-1.593
				c-0.071,0.248-0.269,0.37-0.638,0.319c-1.514-0.237-2.192,0.357-3.51,0.316c-5.65,1.572-11.103,3.344-15.937,5.737
				c-1.5,1.478-3.304,2.646-4.781,4.144c-0.405,1.084-1.768,1.209-1.911,2.552c-0.839,0.756-1.923,1.268-2.232,2.549
				c-1.661,1.313-2.872,3.081-3.825,5.103c-0.702,0.784-1.343,1.629-1.593,2.867c-0.613,0.981-1.762,1.428-1.911,2.87
				c-1.079,3.812-1.347,8.433-1.597,13.068c-0.996,3.888-0.528,9.245-0.635,14.026c0.692-0.057,0.145,1.129,0.318,1.592
				c2.693,10.377,8.372,17.769,14.982,24.229c0.998-0.15,0.842,0.857,1.59,0.956c-0.049,0.901,1.967-0.267,1.914,0.638
				c0.961,0.739,1.982,1.416,2.867,2.231c2.25,1.259,4.441,2.575,7.017,3.505c6.231,2.798,14.651,3.409,23.905,3.188
				c0.145-0.922,2.41,0.283,2.551-0.638c1.418,0.25,1.914-0.423,3.186-0.317c1.598-0.641,3.424-1.045,5.1-1.596
				c1.492-0.742,2.979-1.488,4.469-2.229c1.605-0.729,2.768-1.908,4.463-2.551c3.633-3.381,7.496-6.527,9.881-11.156
				c2.854-4.268,5-9.237,6.059-15.301c0.689-1.01,0.479-2.92,0.953-4.146c0.006-0.846-0.117-1.817,0.321-2.229
				c0.192-0.762-0.401-2.313,0.315-2.549C366.313,218.708,367.073,215.961,366.853,212.232z M360.157,228.49
				c-0.529,1.947-1.354,4.938-2.231,7.012c-0.093,0.223-0.558,0.77-0.636,0.958c-0.192,0.468-0.105,0.799-0.319,1.274
				c-1.407,3.125-3.258,5.699-4.78,8.287c-2.295,2.596-4.811,4.965-7.332,7.334c-2.033,0.729-3.148,2.375-5.42,2.867
				c-1.471,1.287-4.012,1.514-5.736,2.549c-2.682,0.295-5.148,0.803-7.969,0.955c-5.553,0.029-10.586-0.466-14.98-1.594
				c-3.859-0.924-6.662-2.898-10.52-3.824c-1.396-1.363-3.225-2.302-4.783-3.504c-1.282-1.48-3.047-2.479-4.459-3.826
				c-0.114-1.059-0.959-1.381-1.594-1.912c-1.188-2.641-3.199-4.452-3.828-7.65c-1.623-2.199-2.369-5.275-3.188-8.288
				c-0.417-2.149,0.074-4.462,0-7.014c-0.068-2.333-0.561-4.886-0.316-7.331c1.807-9.346,5.488-16.82,11.153-22.313
				c7.033-5.296,14.326-10.326,26.776-10.201h0.641c0.313-0.843,2.534-0.078,3.822,0c3.306,0.207,7.063,0.057,10.197,0.639
				c0.096,0.017,0.352,0.281,0.644,0.318c0.733,0.088,0.78,0.097,1.591,0.318c0.764,0.208,2.381,0.573,3.51,0.955
				c0.113,0.041,0,0.303,0.315,0.32c0.657,0.037,1.011,0.361,1.593,0.637c0.118,0.055,0.563-0.094,0.641,0
				c0.248,0.3,1.826,0.807,2.553,1.275c6.609,3.061,11.727,7.609,14.979,14.025c0.125,1.15,0.426,2.126,0.959,2.867
				C362.341,212.462,362.13,221.266,360.157,228.49z M334.021,210.959c0.748,0.1,0.715,0.986,1.276,1.273
				c0.103,0.746,1.388,0.311,1.591,0.957c1.379-0.219,2.326-0.86,3.51-1.275c1.123-1.189,1.819-2.641,2.229-4.145
				c0.71-2.604,0.421-6.938-0.638-9.244c-1.043-0.658-1.875-1.521-3.823-1.273c-1.168,0.746-2.108,1.715-3.19,2.549
				c-0.236,1.672-1.063,2.76-1.271,4.463v5.739C334.073,210.055,334.049,210.507,334.021,210.959z M309.157,213.189
				c2.297,0.172,3.836-0.408,5.099-1.275c1.632-3.493,2.104-9.639,0-13.069c-1.154-0.546-2.604-0.795-4.463-0.636
				c-1.418,0.703-2.386,1.861-3.187,3.188c-0.498,3.523-0.912,9.302,1.274,11.155C308.475,212.596,308.948,212.762,309.157,213.189z
				 M352.825,218.291c-6.279,8.17-10.918,17.98-20.4,22.949c-0.725,0.229-1.628,0.285-2.23,0.639h-6.058
				c-9.888-1.801-15.94-7.431-21.354-13.707c-1.584-1.605-1.217-5.158-4.146-5.418c-2.992,1.213-1.591,5.841,0,7.648
				c1.098,2.834,3.205,4.662,4.784,7.014c6.464,5.648,13.51,10.715,25.817,10.52c7.344-0.734,11.192-4.961,14.983-9.244
				c1.79-2.248,3.629-4.443,4.781-7.33c1-1.018,1.229-2.81,2.229-3.825c-0.031-0.987,0.391-1.521,0.639-2.231
				c0.479-0.58,0.339-1.785,0.955-2.229c-0.092-1.688,0.556-2.634,0.641-4.146C353.399,218.57,353.112,218.432,352.825,218.291z"/>
		</g>
	</g>
</g>
<g id="Layer_1_copy_2">
	<g id="smile-sad_2_">
		<g>
			<path fill="#3D8AEB" d="M296.853,192.232c0.01-3.515-0.385-6.629-0.636-9.881c-0.638-1.173-0.877-2.735-1.276-4.144
				c-0.686-1.121-1.137-2.476-1.596-3.826c-0.652-0.62-1.045-1.504-1.59-2.231c-0.387-0.994-1.379-1.385-1.598-2.551
				c-1.938-1.676-3.672-3.552-5.735-5.101c-4.997-3.265-9.944-5.901-16.259-7.649c-6.416-1.773-14.74-1.752-22.948-1.593
				c-0.071,0.248-0.269,0.37-0.638,0.319c-1.514-0.237-2.192,0.357-3.51,0.316c-5.65,1.572-11.103,3.344-15.937,5.737
				c-1.5,1.478-3.304,2.646-4.781,4.144c-0.405,1.084-1.768,1.209-1.911,2.552c-0.839,0.756-1.923,1.268-2.232,2.549
				c-1.661,1.313-2.872,3.081-3.825,5.103c-0.702,0.784-1.343,1.629-1.593,2.867c-0.613,0.981-1.762,1.428-1.911,2.87
				c-1.079,3.812-1.347,8.433-1.597,13.068c-0.996,3.888-0.528,9.245-0.635,14.026c0.692-0.057,0.145,1.129,0.318,1.592
				c2.693,10.377,8.372,17.769,14.982,24.229c0.998-0.15,0.842,0.857,1.59,0.956c-0.049,0.901,1.967-0.267,1.914,0.638
				c0.961,0.739,1.982,1.416,2.867,2.231c2.25,1.259,4.441,2.575,7.017,3.505c6.231,2.798,14.651,3.409,23.905,3.188
				c0.145-0.922,2.41,0.283,2.551-0.638c1.418,0.25,1.914-0.423,3.186-0.317c1.598-0.641,3.424-1.045,5.1-1.596
				c1.492-0.742,2.979-1.488,4.469-2.229c1.605-0.729,2.768-1.908,4.463-2.551c3.633-3.381,7.496-6.527,9.881-11.156
				c2.854-4.268,5-9.237,6.059-15.301c0.689-1.01,0.479-2.92,0.953-4.146c0.006-0.846-0.117-1.817,0.321-2.229
				c0.192-0.762-0.401-2.313,0.315-2.549C296.313,198.708,297.073,195.961,296.853,192.232z M290.157,208.49
				c-0.529,1.947-1.354,4.938-2.231,7.012c-0.093,0.223-0.558,0.77-0.636,0.958c-0.192,0.468-0.105,0.799-0.319,1.274
				c-1.407,3.125-3.258,5.699-4.78,8.287c-2.295,2.596-4.811,4.965-7.332,7.334c-2.033,0.729-3.148,2.375-5.42,2.867
				c-1.471,1.287-4.012,1.514-5.736,2.549c-2.682,0.295-5.148,0.803-7.969,0.955c-5.553,0.029-10.586-0.466-14.98-1.594
				c-3.859-0.924-6.662-2.898-10.52-3.824c-1.396-1.363-3.225-2.302-4.783-3.504c-1.282-1.48-3.047-2.479-4.459-3.826
				c-0.114-1.059-0.959-1.381-1.594-1.912c-1.188-2.641-3.199-4.452-3.828-7.65c-1.623-2.199-2.369-5.275-3.188-8.288
				c-0.417-2.149,0.074-4.462,0-7.014c-0.068-2.333-0.561-4.886-0.316-7.331c1.807-9.346,5.488-16.82,11.153-22.313
				c7.033-5.296,14.326-10.326,26.776-10.201h0.641c0.313-0.843,2.534-0.078,3.822,0c3.306,0.207,7.063,0.057,10.197,0.639
				c0.096,0.017,0.352,0.281,0.644,0.318c0.733,0.088,0.78,0.097,1.591,0.318c0.764,0.208,2.381,0.573,3.51,0.955
				c0.113,0.041,0,0.303,0.315,0.32c0.657,0.037,1.011,0.361,1.593,0.637c0.118,0.055,0.563-0.094,0.641,0
				c0.248,0.3,1.826,0.807,2.553,1.275c6.609,3.061,11.727,7.609,14.979,14.025c0.125,1.15,0.426,2.126,0.959,2.867
				C292.341,192.462,292.13,201.266,290.157,208.49z M264.021,190.959c0.748,0.1,0.715,0.986,1.276,1.273
				c0.103,0.746,1.388,0.311,1.591,0.957c1.379-0.219,2.326-0.86,3.51-1.275c1.123-1.189,1.819-2.641,2.229-4.145
				c0.71-2.604,0.421-6.938-0.638-9.244c-1.043-0.658-1.875-1.521-3.823-1.273c-1.168,0.746-2.108,1.715-3.19,2.549
				c-0.236,1.672-1.063,2.76-1.271,4.463v5.739C264.073,190.055,264.049,190.507,264.021,190.959z M239.157,193.189
				c2.297,0.172,3.836-0.408,5.099-1.275c1.632-3.493,2.104-9.639,0-13.069c-1.154-0.546-2.604-0.795-4.463-0.636
				c-1.418,0.703-2.386,1.861-3.187,3.188c-0.498,3.523-0.912,9.302,1.274,11.155C238.475,192.596,238.948,192.762,239.157,193.189z
				 M282.825,198.291c-6.279,8.17-10.918,17.98-20.4,22.949c-0.725,0.229-1.628,0.285-2.23,0.639h-6.058
				c-9.888-1.801-15.94-7.431-21.354-13.707c-1.584-1.605-1.217-5.158-4.146-5.418c-2.992,1.213-1.591,5.841,0,7.648
				c1.098,2.834,3.205,4.662,4.784,7.014c6.464,5.648,13.51,10.715,25.817,10.52c7.344-0.734,11.192-4.961,14.983-9.244
				c1.79-2.248,3.629-4.443,4.781-7.33c1-1.018,1.229-2.81,2.229-3.825c-0.031-0.987,0.391-1.521,0.639-2.231
				c0.479-0.58,0.339-1.785,0.955-2.229c-0.092-1.688,0.556-2.634,0.641-4.146C283.399,198.57,283.112,198.432,282.825,198.291z"/>
		</g>
	</g>
</g>
</svg>
